<svg width="36" height="42" viewBox="0 0 36 42" fill="none" xmlns="http://www.w3.org/2000/svg">
<path d="M26.19 11.2917H24.19V9.82169C24.19 7.97169 23.53 6.24169 22.34 4.96169C21.18 3.68169 19.6401 2.98169 17.9901 2.98169C14.5801 2.98169 11.8 6.05169 11.8 9.83169V11.3017H9.80005V9.83169C9.80005 4.95169 13.4701 0.981689 17.9901 0.981689C20.2101 0.981689 22.2701 1.92169 23.8101 3.61169C25.3401 5.26169 26.18 7.46169 26.18 9.82169V11.2917H26.19Z" fill="black"/>
<path fill-rule="evenodd" clip-rule="evenodd" d="M0.170044 15.5617H35.84V41.9717H0.170044V15.5617ZM20.4501 26.5717C20.4501 27.6603 19.7348 28.5863 18.75 28.9041V32.2617C18.75 32.6717 18.41 33.0117 18 33.0117C17.59 33.0117 17.25 32.6717 17.25 32.2617V28.9041C16.2652 28.5862 15.55 27.6602 15.55 26.5717C15.55 25.2217 16.65 24.1217 18 24.1217C19.35 24.1217 20.4501 25.2117 20.4501 26.5717Z" fill="black"/>
</svg>
