<svg width="41" height="46" viewBox="0 0 41 46" fill="none" xmlns="http://www.w3.org/2000/svg">
<g clip-path="url(#clip0_3002_9938)">
<path fill-rule="evenodd" clip-rule="evenodd" d="M40.2048 10.3061C40.2391 10.376 40.2597 10.4528 40.2597 10.5366H40.2734V33.5552C40.2734 33.7578 40.1567 33.9463 39.9712 34.0301L20.4932 43.1859H20.4657C20.4039 43.2069 20.3421 43.2278 20.2734 43.2278C20.2048 43.2278 20.1429 43.2139 20.0811 43.1859H20.0537L0.575636 34.0301C0.390196 33.9463 0.273438 33.7578 0.273438 33.5552V27.3418H-15.7109V26.3418H0.273438V23.4717H-11.8418V22.4717H0.273438V19.6016H-5.39062V18.6016H0.273438V10.5226C0.273438 10.4388 0.294043 10.369 0.328382 10.2992C0.3332 10.2845 0.341398 10.2732 0.350603 10.2606C0.354521 10.2552 0.358622 10.2495 0.362722 10.2433C0.390196 10.2014 0.424536 10.1595 0.472612 10.1246C0.477478 10.1196 0.481483 10.1147 0.485235 10.11C0.492077 10.1016 0.498083 10.0942 0.506954 10.0896C0.520691 10.0757 0.527559 10.0757 0.541294 10.0757C0.555031 10.0687 0.582504 10.0477 0.582504 10.0477L20.0674 1.55543C20.1223 1.53448 20.1773 1.52051 20.2322 1.52051H20.2666C20.2761 1.52051 20.2872 1.52352 20.299 1.52674C20.3127 1.53046 20.3274 1.53448 20.3421 1.53448C20.3524 1.53622 20.3627 1.53753 20.373 1.53884C20.4039 1.54277 20.4348 1.5467 20.4657 1.56241H20.4726L39.9506 10.0547C39.9575 10.0582 39.9644 10.0635 39.9712 10.0687C39.9781 10.0739 39.985 10.0792 39.9918 10.0827C40.0056 10.0966 40.0193 10.0966 40.0262 10.0966C40.0331 10.1001 40.0382 10.1071 40.0434 10.1141C40.0485 10.1211 40.0537 10.1281 40.0605 10.1315C40.1017 10.1665 40.1429 10.2014 40.1704 10.2503C40.1773 10.2642 40.191 10.2852 40.2048 10.3061ZM2.05228 10.5506L20.2666 19.1127V19.1057L26.2281 16.3052L7.87646 8.30877C7.78031 8.26687 7.71162 8.19005 7.65668 8.10624L2.05228 10.5506ZM13.5244 5.55213C13.5335 5.55969 13.5672 5.58708 13.5907 5.59905L31.9699 13.6095L27.485 15.7186L8.84487 7.58944L13.5244 5.55213ZM32.7528 14.3917L28.0688 16.5916V38.4579L32.7528 36.258V14.3917ZM14.8133 4.99146L33.2267 13.0159H33.2336L38.4809 10.5506L20.2666 2.61697L14.8133 4.99146ZM27.0385 17.0735L20.7748 20.0206V41.8869L27.0385 38.9398V17.0735ZM33.7831 35.7691L39.2226 33.213V11.3537L33.7831 13.9098V35.7691Z" fill="black"/>
</g>
<defs>
<clipPath id="clip0_3002_9938">
<rect width="40" height="45" fill="white" transform="translate(0.5 0.97168)"/>
</clipPath>
</defs>
</svg>
